<?xml version="1.0" encoding="UTF-8"?>
<svg width="44px" height="44px" viewBox="0 0 44 44" version="1.1" xmlns="http://www.w3.org/2000/svg" xmlns:xlink="http://www.w3.org/1999/xlink">
    <!-- Generator: Sketch 58 (84663) - https://sketch.com -->
    <title>icon/icon-seccess@2x</title>
    <desc>Created with Sketch.</desc>
    <g id="icon/icon-seccess" stroke="none" stroke-width="1" fill="none" fill-rule="evenodd">
        <path d="M26.5384615,10 L13.6153846,10 C12.7232323,10 12,10.7163444 12,11.6 L12,32.4 C12,33.2836556 12.7232323,34 13.6153846,34 L31.3846154,34 C32.2767677,34 33,33.2836556 33,32.4 L33,16.4 C33,14 28.9615385,10 26.5384615,10 Z M28.1538462,23.712 L22.5,29.312 C22.1970051,29.6124433 21.7858534,29.7812587 21.3571154,29.7812587 C20.9283774,29.7812587 20.5172256,29.6124433 20.2142308,29.312 L16.9834615,26.112 C16.3522638,25.4868137 16.3522638,24.4731864 16.9834616,23.848 C17.6146593,23.2228137 18.638033,23.2228137 19.2692308,23.848 L21.3611538,25.92 L25.8761538,21.448 C26.5154009,20.8763063 27.4950622,20.9019 28.1029932,21.5061765 C28.7109242,22.1104529 28.7332962,23.0808687 28.1538462,23.712 L28.1538462,23.712 Z M28.9615385,18.2 C26.6214822,18.1955978 24.7255984,16.31777 24.7211538,14 C24.7211538,13.4477153 25.1731741,13 25.7307692,13 C26.2883644,13 26.7403846,13.4477153 26.7403846,14 C26.7403846,14.5834763 26.9743984,15.1430549 27.3909455,15.5556349 C27.8074927,15.968215 28.3724518,16.2 28.9615385,16.2 C29.5191336,16.2 29.9711538,16.6477153 29.9711538,17.2 C29.9711538,17.7522847 29.5191336,18.2 28.9615385,18.2 L28.9615385,18.2 Z" id="Shape" fill="#FFFFFF" fill-rule="nonzero"></path>
    </g>
</svg>