<?xml version="1.0" encoding="UTF-8"?>
<svg width="13px" height="13px" viewBox="0 0 13 13" version="1.1" xmlns="http://www.w3.org/2000/svg" xmlns:xlink="http://www.w3.org/1999/xlink">
    <!-- Generator: Sketch 58 (84663) - https://sketch.com -->
    <title>icon-leaf</title>
    <desc>Created with Sketch.</desc>
    <g id="icon-leaf" stroke="none" stroke-width="1" fill="none" fill-rule="evenodd">
        <path d="M10.4361148,1.03584031e-16 C11.3276335,-6.01853049e-17 11.6509198,0.0928256111 11.9768457,0.267132704 C12.3027716,0.441439796 12.5585602,0.697228371 12.7328673,1.0231543 C12.9071744,1.34908022 13,1.67236646 13,2.5638852 L13,10.4361148 C13,11.3276335 12.9071744,11.6509198 12.7328673,11.9768457 C12.5585602,12.3027716 12.3027716,12.5585602 11.9768457,12.7328673 C11.6509198,12.9071744 11.3276335,13 10.4361148,13 L2.5638852,13 C1.67236646,13 1.34908022,12.9071744 1.0231543,12.7328673 C0.697228371,12.5585602 0.441439796,12.3027716 0.267132704,11.9768457 C0.0928256111,11.6509198 4.01235366e-17,11.3276335 -6.90560205e-17,10.4361148 L6.90560205e-17,2.5638852 C-4.01235366e-17,1.67236646 0.0928256111,1.34908022 0.267132704,1.0231543 C0.441439796,0.697228371 0.697228371,0.441439796 1.0231543,0.267132704 C1.34908022,0.0928256111 1.67236646,6.01853049e-17 2.5638852,-1.03584031e-16 L10.4361148,1.03584031e-16 Z M3.82635375,4.21967612 C2.92581989,5.08071141 2.77055543,6.40870314 3.31539253,7.56394798 C4.06813734,6.02514094 5.3661896,4.79071617 6.97963377,4.07931927 C7.21392001,3.96956742 7.49634375,4.02759175 7.66279739,4.21967612 C6.05227391,5.04560458 4.82432462,6.41906818 4.22157237,8.0686928 C3.93252567,8.85371952 3.81062786,9.68609707 3.86305262,10.5168402 C3.89350519,10.7926514 4.13758851,11.0015243 4.42765066,11 L4.48693345,11 C4.63592621,10.9856761 4.77286861,10.9153548 4.86763396,10.8044982 C4.96239932,10.6936416 5.00722468,10.5513307 4.99224869,10.4088733 C4.96697153,10.0406275 4.98877552,9.67080845 5.05717746,9.30761192 C6.30493912,9.92572189 7.78700896,9.8069584 8.72706468,8.90543556 C10.3051162,7.38850191 10.059516,3.36943751 9.83649982,3.15620307 C9.60501462,2.94296862 5.41005123,2.70814082 3.82635375,4.21967612 Z" id="10" fill="#B3C8D3" fill-rule="nonzero"></path>
    </g>
</svg>