<?xml version="1.0" encoding="UTF-8"?>
<svg width="13px" height="13px" viewBox="0 0 13 13" version="1.1" xmlns="http://www.w3.org/2000/svg" xmlns:xlink="http://www.w3.org/1999/xlink">
    <!-- Generator: Sketch 58 (84663) - https://sketch.com -->
    <title>icon-right</title>
    <desc>Created with Sketch.</desc>
    <g id="icon-right" stroke="none" stroke-width="1" fill="none" fill-rule="evenodd">
        <path d="M10.4361148,1.03584031e-16 C11.3276335,-6.01853049e-17 11.6509198,0.0928256111 11.9768457,0.267132704 C12.3027716,0.441439796 12.5585602,0.697228371 12.7328673,1.0231543 C12.9071744,1.34908022 13,1.67236646 13,2.5638852 L13,10.4361148 C13,11.3276335 12.9071744,11.6509198 12.7328673,11.9768457 C12.5585602,12.3027716 12.3027716,12.5585602 11.9768457,12.7328673 C11.6509198,12.9071744 11.3276335,13 10.4361148,13 L2.5638852,13 C1.67236646,13 1.34908022,12.9071744 1.0231543,12.7328673 C0.697228371,12.5585602 0.441439796,12.3027716 0.267132704,11.9768457 C0.0928256111,11.6509198 4.01235366e-17,11.3276335 -6.90560205e-17,10.4361148 L6.90560205e-17,2.5638852 C-4.01235366e-17,1.67236646 0.0928256111,1.34908022 0.267132704,1.0231543 C0.441439796,0.697228371 0.697228371,0.441439796 1.0231543,0.267132704 C1.34908022,0.0928256111 1.67236646,6.01853049e-17 2.5638852,-1.03584031e-16 L10.4361148,1.03584031e-16 Z M9.68365657,4.17816431 C9.31660987,3.90108816 8.77727221,3.9528859 8.47900882,4.29385813 L8.47900882,4.29385813 L5.80289873,7.13785556 L4.4627028,6.18322705 C4.12809056,5.8723829 3.58557368,5.8723829 3.25096015,6.18322705 C2.91634662,6.49407 2.91634662,6.99804902 3.25096014,7.30889316 L3.25096014,7.30889316 L5.07927856,9.57215826 C5.16516842,9.67789968 5.27109014,9.76820952 5.39184822,9.83865872 L5.39184822,9.83865872 L5.51009336,9.89832131 C6.03200401,10.1264348 6.66650666,9.9614257 6.98038725,9.49658355 L6.98038725,9.49658355 L7.01892327,9.44089684 L9.8491773,5.22462092 L9.85345768,5.2405306 C10.1015502,4.89899237 10.027869,4.43800425 9.68365657,4.17816431 Z" id="11" fill="#B3C8D3" fill-rule="nonzero"></path>
    </g>
</svg>