<?xml version="1.0" encoding="UTF-8"?>
<svg width="68px" height="68px" viewBox="0 0 68 68" version="1.1" xmlns="http://www.w3.org/2000/svg" xmlns:xlink="http://www.w3.org/1999/xlink">
    <!-- Generator: Sketch 61 (89581) - https://sketch.com -->
    <title>UI/option/icon-alert</title>
    <desc>Created with Sketch.</desc>
    <g id="UI/option/icon-alert" stroke="none" stroke-width="1" fill="none" fill-rule="evenodd">
        <path d="M34,9 L34,9 C20.1928833,9 9,20.1928833 9,34 C9,47.8071167 20.1928833,59 34,59 C47.8071167,59 59,47.8071167 59,34 L59,34 C59,20.1928844 47.8071167,9 34,9 L34,9 Z M34.0000011,19.1166667 L34.0000009,19.1166667 C35.8409509,19.1166666 37.3333343,20.60905 37.3333343,22.45 C37.3333343,26.6833333 37.4333343,23.8166667 36.7333343,36.85 L36.7333343,36.85 C36.7333343,38.3871933 35.4871943,39.6333333 33.9500009,39.6333333 C32.4128076,39.6333333 31.1666676,38.3871933 31.1666676,36.85 C30.4666676,23.9166667 30.5666676,26.85 30.5666676,22.45 L30.5666675,22.4496511 C30.5660316,20.6087011 32.0579008,19.1158011 33.8988508,19.1151675 C33.93269,19.1151675 33.9665273,19.1156597 34.0003511,19.1166784 L34.0000011,19.1166667 Z M34.0000011,48.8833717 L34.000001,48.8833717 C31.9841843,48.8741074 30.3575177,47.232485 30.3667119,45.2166667 C30.3759769,43.20085 32.0175993,41.5741833 34.0334177,41.5833776 C36.036201,41.5925829 37.657501,43.21389 37.6667067,45.2166667 L37.6667067,45.2167003 C37.675875,47.232517 36.0491961,48.8741336 34.0333845,48.8833717 C34.022248,48.8833717 34.0111113,48.8833717 33.9999748,48.8833717 L34.0000011,48.8833717 Z" id="icon/icon-alert" fill="#FF9500" fill-rule="nonzero"></path>
    </g>
</svg>