<!-- Generated by IcoMoon.io -->
<svg version="1.1" xmlns="http://www.w3.org/2000/svg" width="32" height="32" viewBox="0 0 32 32">
<title>icon-share</title>
<path fill="#b3c8d3" d="M9.467 16.035v2.604h-3.733c-0.515 0-0.933 0.389-0.933 0.868v5.021c0 0.479 0.418 0.868 0.933 0.868h20.533c0.515 0 0.933-0.389 0.933-0.868v-5.021c0-0.479-0.418-0.868-0.933-0.868h-3.733v-2.604h3.733c2.062 0 3.733 1.555 3.733 3.472v5.021c0 1.918-1.671 3.472-3.733 3.472h-20.533c-2.062 0-3.733-1.555-3.733-3.472v-5.021c0-1.918 1.671-3.472 3.733-3.472h3.733zM15.042 4.189c0.697-0.288 1.507-0.247 2.171 0.123v0l0.667 0.41c2.414 1.544 4.47 3.527 6.044 5.831v0l0.12 0.21c0.142 0.287 0.217 0.6 0.216 0.918v0l-0.016 0.255c-0.084 0.672-0.499 1.276-1.131 1.628-1.119 0.624-2.569 0.286-3.239-0.755v0l-0.35-0.506c-0.242-0.332-0.502-0.653-0.779-0.961v0l-0.532 6.371c-0.098 0.991-0.943 1.777-2.009 1.868-1.222 0.104-2.303-0.732-2.415-1.868v0l-0.532-6.345c-0.407 0.459-0.784 0.94-1.129 1.441v0l-0.021 0.033-0.022 0.033c-0.69 1.029-2.146 1.344-3.253 0.702s-1.445-1.996-0.755-3.025v0l0.441-0.62c1.66-2.245 3.792-4.158 6.27-5.621v0z"></path>
</svg>
