<?xml version="1.0" encoding="UTF-8"?>
<svg width="44px" height="44px" viewBox="0 0 44 44" version="1.1" xmlns="http://www.w3.org/2000/svg" xmlns:xlink="http://www.w3.org/1999/xlink">
    <!-- Generator: Sketch 58 (84663) - https://sketch.com -->
    <title>icon/icon-cancel@2x</title>
    <desc>Created with Sketch.</desc>
    <g id="icon/icon-cancel" stroke="none" stroke-width="1" fill="none" fill-rule="evenodd">
        <path d="M26.5384615,10 L13.6153846,10 C12.7232323,10 12,10.7163444 12,11.6 L12,32.4 C12,33.2836556 12.7232323,34 13.6153846,34 L31.3846154,34 C32.2767677,34 33,33.2836556 33,32.4 L33,16.4 C33,14 28.9615385,10 26.5384615,10 Z M27.1603846,27.464 C27.568698,27.8684246 27.7281625,28.4578864 27.5787094,29.0103408 C27.4292564,29.5627951 26.9935912,29.9943111 26.4358248,30.1423408 C25.8780584,30.2903705 25.2829287,30.1324247 24.8746154,29.728 L22.5888462,27.464 L20.3030769,29.728 C19.6718792,30.3531863 18.6485054,30.3531863 18.0173077,29.728 C17.38611,29.1028137 17.38611,28.0891863 18.0173077,27.464 L20.3030769,25.2 L18.0173077,22.936 C17.6089943,22.5315754 17.4495298,21.9421136 17.5989829,21.3896592 C17.7484359,20.8372049 18.1841011,20.4056889 18.7418675,20.2576592 C19.2996339,20.1096295 19.8947636,20.2675754 20.3030769,20.672 L22.5888462,22.936 L24.8746154,20.672 C25.2829287,20.2675753 25.8780584,20.1096295 26.4358248,20.2576592 C26.9935912,20.4056889 27.4292564,20.8372049 27.5787094,21.3896592 C27.7281625,21.9421136 27.568698,22.5315754 27.1603846,22.936 L24.8746154,25.2 L27.1603846,27.464 Z M28.9615385,18.2 C26.6214822,18.1955978 24.7255984,16.31777 24.7211538,14 C24.7211538,13.4477153 25.1731741,13 25.7307692,13 C26.2883644,13 26.7403846,13.4477153 26.7403846,14 C26.7403846,14.5834763 26.9743984,15.1430549 27.3909455,15.5556349 C27.8074927,15.968215 28.3724518,16.2 28.9615385,16.2 C29.5191336,16.2 29.9711538,16.6477153 29.9711538,17.2 C29.9711538,17.7522847 29.5191336,18.2 28.9615385,18.2 L28.9615385,18.2 Z" id="Shape" fill="#FFFFFF" fill-rule="nonzero"></path>
    </g>
</svg>