<?xml version="1.0" encoding="UTF-8"?>
<svg width="44px" height="44px" viewBox="0 0 44 44" version="1.1" xmlns="http://www.w3.org/2000/svg" xmlns:xlink="http://www.w3.org/1999/xlink">
    <!-- Generator: Sketch 60 (88103) - https://sketch.com -->
    <title>icon/icon-traffic@2x</title>
    <desc>Created with Sketch.</desc>
    <g id="icon/icon-traffic" stroke="none" stroke-width="1" fill="none" fill-rule="evenodd">
        <path d="M18.5,27 C20.4329966,27 22,28.5670034 22,30.5 C22,32.4329966 20.4329966,34 18.5,34 C16.5670034,34 15,32.4329966 15,30.5 C15,28.5670034 16.5670034,27 18.5,27 Z M28.5,27 C30.4329966,27 32,28.5670034 32,30.5 C32,32.4329966 30.4329966,34 28.5,34 C26.5670034,34 25,32.4329966 25,30.5 C25,28.5670034 26.5670034,27 28.5,27 Z M25.2,11 C26.0836556,11 26.8,11.732625 26.8,12.6363636 L26.8,12.6363636 L26.8,14.0190909 C30.9644123,14.8065779 33.989736,18.5160373 34,22.8472727 L34,22.8472727 L34,26.9381818 C33.999509,27.5073125 33.7427833,28.044505 33.304,28.3945455 C32.3086877,26.5892186 30.4261722,25.4868038 28.4,25.5227273 C26.1492142,25.3936726 24.0907378,26.8161456 23.368,29 L23.368,29 L23.04,29 C22.3164712,26.8130792 20.2536737,25.3898829 18,25.5227273 C15.98638,25.4439017 14.0955566,26.5115842 13.088,28.2963636 C12.6578204,27.9911535 12.4008616,27.4900023 12.4,26.9545455 L12.4,26.9545455 L12.4,23.2727273 L18,23.2727273 C18.6627417,23.2727273 19.2,22.7232586 19.2,22.0454545 C19.2,21.3676505 18.6627417,20.8181818 18,20.8181818 L18,20.8181818 L11.6,20.8181818 C10.9372583,20.8181818 10.4,20.2687131 10.4,19.5909091 C10.4,18.9131051 10.9372583,18.3636364 11.6,18.3636364 L11.6,18.3636364 L15.6,18.3636364 C16.2627417,18.3636364 16.8,17.8141676 16.8,17.1363636 C16.8,16.4585596 16.2627417,15.9090909 15.6,15.9090909 L15.6,15.9090909 L11.2,15.9090909 C10.5372583,15.9090909 10,15.3596222 10,14.6818182 C10,14.0040142 10.5372583,13.4545455 11.2,13.4545455 L11.2,13.4545455 L12.4,13.4545455 L12.4,12.6363636 C12.4,11.732625 13.1163444,11 14,11 L14,11 Z M26.8,16.5309091 L26.8,23.2727273 L31.6,23.2727273 C31.6122715,20.1942047 29.668509,17.4641019 26.8,16.5309091 L26.8,16.5309091 Z" id="Combined-Shape" fill="#FFFFFF" fill-rule="nonzero"></path>
    </g>
</svg>