<!-- Generated by IcoMoon.io -->
<svg version="1.1" xmlns="http://www.w3.org/2000/svg" width="32" height="32" viewBox="0 0 32 32">
<title>icon-traffic</title>
<path fill="#b3c8d3" d="M6.311 0h19.378c2.195 0 2.99 0.229 3.793 0.658s1.432 1.059 1.861 1.861c0.429 0.802 0.658 1.598 0.658 3.793v19.378c0 2.195-0.229 2.99-0.658 3.793s-1.059 1.432-1.861 1.861c-0.802 0.429-1.598 0.658-3.793 0.658h-19.378c-2.194 0-2.99-0.229-3.793-0.658s-1.432-1.059-1.861-1.861c-0.429-0.802-0.658-1.598-0.658-3.793v-19.378c0-2.194 0.229-2.99 0.658-3.793s1.059-1.432 1.861-1.861c0.802-0.429 1.598-0.658 3.793-0.658z"></path>
<path fill="#fff" d="M14.657 21.208c1.298 1.343 1.298 3.519 0 4.862s-3.402 1.343-4.7 0c-1.298-1.343-1.298-3.519 0-4.862s3.402-1.343 4.7 0zM24.257 21.208c1.298 1.343 1.298 3.519 0 4.862s-3.402 1.343-4.7 0c-1.298-1.343-1.298-3.519 0-4.862s3.402-1.343 4.7 0zM18.954 4.923c0.816 0 1.477 0.684 1.477 1.528v0l0 1.291c3.844 0.735 6.637 4.199 6.646 8.243v0 3.82c-0 0.531-0.237 1.033-0.642 1.36v0l-0.209-0.351c-0.959-1.476-2.581-2.362-4.318-2.33v0l-0.387-0.006c-1.923 0.054-3.632 1.341-4.258 3.252v0h-0.303c-0.668-2.042-2.572-3.371-4.652-3.247v0l-0.396 0c-1.708 0.072-3.274 1.042-4.138 2.589v0l-0.185-0.157c-0.285-0.285-0.45-0.679-0.45-1.096v0-3.438h5.169c0.612 0 1.108-0.513 1.108-1.146s-0.496-1.146-1.108-1.146v0h-5.908c-0.612 0-1.108-0.513-1.108-1.146s0.496-1.146 1.108-1.146v0h3.692c0.612 0 1.108-0.513 1.108-1.146s-0.496-1.146-1.108-1.146v0h-4.062c-0.612 0-1.108-0.513-1.108-1.146s0.496-1.146 1.108-1.146v0h1.108v-0.764l0.019-0.248c0.114-0.726 0.723-1.28 1.458-1.28v0zM20.431 10.087v6.295h4.431c0.011-2.874-1.783-5.423-4.431-6.295v0z"></path>
</svg>
