<?xml version="1.0" encoding="UTF-8"?>
<svg width="13px" height="13px" viewBox="0 0 13 13" version="1.1" xmlns="http://www.w3.org/2000/svg" xmlns:xlink="http://www.w3.org/1999/xlink">
    <!-- Generator: Sketch 58 (84663) - https://sketch.com -->
    <title>icon-heart</title>
    <desc>Created with Sketch.</desc>
    <g id="icon-heart" stroke="none" stroke-width="1" fill="none" fill-rule="evenodd">
        <path d="M10.4361148,1.03584031e-16 C11.3276335,-6.01853049e-17 11.6509198,0.0928256111 11.9768457,0.267132704 C12.3027716,0.441439796 12.5585602,0.697228371 12.7328673,1.0231543 C12.9071744,1.34908022 13,1.67236646 13,2.5638852 L13,10.4361148 C13,11.3276335 12.9071744,11.6509198 12.7328673,11.9768457 C12.5585602,12.3027716 12.3027716,12.5585602 11.9768457,12.7328673 C11.6509198,12.9071744 11.3276335,13 10.4361148,13 L2.5638852,13 C1.67236646,13 1.34908022,12.9071744 1.0231543,12.7328673 C0.697228371,12.5585602 0.441439796,12.3027716 0.267132704,11.9768457 C0.0928256111,11.6509198 4.01235366e-17,11.3276335 -6.90560205e-17,10.4361148 L6.90560205e-17,2.5638852 C-4.01235366e-17,1.67236646 0.0928256111,1.34908022 0.267132704,1.0231543 C0.441439796,0.697228371 0.697228371,0.441439796 1.0231543,0.267132704 C1.34908022,0.0928256111 1.67236646,6.01853049e-17 2.5638852,-1.03584031e-16 L10.4361148,1.03584031e-16 Z M8.18,4 C7.44299349,4.00156528 6.77968349,4.44805232 6.5,5.13084112 C6.21999302,4.44726657 5.55552333,4.00061927 4.81766667,4 C3.81433333,4 3,5.00233645 3,6.00934579 C3,8.21028037 6.03333333,10 6.5,10 C6.96666667,10 10,8.21028037 10,6.00934579 C10,5.00233645 9.18566667,4 8.18,4 Z" id="9" fill="#B3C8D3" fill-rule="nonzero"></path>
    </g>
</svg>