<?xml version="1.0" encoding="UTF-8"?>
<svg width="44px" height="44px" viewBox="0 0 44 44" version="1.1" xmlns="http://www.w3.org/2000/svg" xmlns:xlink="http://www.w3.org/1999/xlink">
    <!-- Generator: Sketch 58 (84663) - https://sketch.com -->
    <title>icon/icon-bill@2x</title>
    <desc>Created with Sketch.</desc>
    <g id="icon/icon-bill" stroke="none" stroke-width="1" fill="none" fill-rule="evenodd">
        <path d="M30,31.9972615 C30,32.7055907 29.2861722,33.1901819 28.6294258,32.9276934 L25.0601958,31.5011429 L22.9393072,32.631379 C22.3520643,32.9443249 21.6479357,32.9443249 21.0606928,32.631379 L18.9398042,31.5011429 L15.3705742,32.9276934 C14.7138278,33.1901819 14,32.7055907 14,31.9972615 L14,12.0030385 C14,11.2593153 14.7804747,10.7749203 15.4452451,11.1060594 L18.9284516,12.8411334 L20.8948293,11.5351296 C21.5646836,11.0902342 22.4353164,11.0902342 23.1051707,11.5351296 L25.0715483,12.8411334 L28.5547549,11.1060594 C29.2195253,10.7749203 30,11.2593153 30,12.0030385 L30,31.9972615 Z M19,23.0223304 L24.9989014,23.0223304 C25.5511861,23.0223304 25.9989014,22.5738299 25.9989014,22.0205766 C25.9989014,21.4673233 25.5511861,21.0188228 24.9989014,21.0188228 L19,21.0188228 C18.4477153,21.0188228 18,21.4673233 18,22.0205766 C18,22.5738299 18.4477153,23.0223304 19,23.0223304 Z M19,19.2657537 L24.9989014,19.2657537 C25.5511861,19.2657537 25.9989014,18.8172532 25.9989014,18.2639998 C25.9989014,17.7107465 25.5511861,17.262246 24.9989014,17.262246 L19,17.262246 C18.4477153,17.262246 18,17.7107465 18,18.2639998 C18,18.8172532 18.4477153,19.2657537 19,19.2657537 Z M19,27.0293457 L24.9989014,27.0293457 C25.5511861,27.0293457 25.9989014,26.5808452 25.9989014,26.0275919 C25.9989014,25.4743386 25.5511861,25.0258381 24.9989014,25.0258381 L19,25.0258381 C18.4477153,25.0258381 18,25.4743386 18,26.0275919 C18,26.5808452 18.4477153,27.0293457 19,27.0293457 Z" id="icon-bill" fill="#FFFFFF" fill-rule="nonzero"></path>
    </g>
</svg>