<?xml version="1.0" encoding="UTF-8"?>
<svg width="13px" height="13px" viewBox="0 0 13 13" version="1.1" xmlns="http://www.w3.org/2000/svg" xmlns:xlink="http://www.w3.org/1999/xlink">
    <!-- Generator: Sketch 58 (84663) - https://sketch.com -->
    <title>icon-global</title>
    <desc>Created with Sketch.</desc>
    <g id="icon-global" stroke="none" stroke-width="1" fill="none" fill-rule="evenodd">
        <path d="M10.4361148,1.03584031e-16 C11.3276335,-6.01853049e-17 11.6509198,0.0928256111 11.9768457,0.267132704 C12.3027716,0.441439796 12.5585602,0.697228371 12.7328673,1.0231543 C12.9071744,1.34908022 13,1.67236646 13,2.5638852 L13,10.4361148 C13,11.3276335 12.9071744,11.6509198 12.7328673,11.9768457 C12.5585602,12.3027716 12.3027716,12.5585602 11.9768457,12.7328673 C11.6509198,12.9071744 11.3276335,13 10.4361148,13 L2.5638852,13 C1.67236646,13 1.34908022,12.9071744 1.0231543,12.7328673 C0.697228371,12.5585602 0.441439796,12.3027716 0.267132704,11.9768457 C0.0928256111,11.6509198 4.01235366e-17,11.3276335 -6.90560205e-17,10.4361148 L6.90560205e-17,2.5638852 C-4.01235366e-17,1.67236646 0.0928256111,1.34908022 0.267132704,1.0231543 C0.441439796,0.697228371 0.697228371,0.441439796 1.0231543,0.267132704 C1.34908022,0.0928256111 1.67236646,6.01853049e-17 2.5638852,-1.03584031e-16 L10.4361148,1.03584031e-16 Z M6.5,2 C4.01471863,2 2,4.01471863 2,6.5 C2,8.98528137 4.01471863,11 6.5,11 C8.98528137,11 11,8.98528137 11,6.5 C11,4.01471863 8.98528137,2 6.5,2 Z M6.332,2.78 C6.38555906,2.79691165 6.43771727,2.81797554 6.488,2.843 C6.407,2.9 5.954,3.2 6.419,3.5 C6.59627995,3.58919569 6.74492954,3.7264107 6.848,3.896 C6.986,4.22 6.464,4.391 6.248,4.514 C6.1121,4.5917 5.98586,4.66172 5.868659,4.725233 L5.79,4.767 L5.768,4.797 L5.755,4.815 L5.697,4.897 L4.742,6.248 C4.8615086,6.29803127 4.98492316,6.33816608 5.111,6.368 C5.111,6.368 7.418,5.309 7.418,6.764 C7.418,8.219 5.843,9.962 5.672,9.995 C5.50925169,10.0105164 5.35648221,9.91441946 5.3,9.761 C5.216,9.611 5.393,8.477 5.3,8.288 C5.207,8.099 5,8.12 4.877,7.955 C4.73855698,7.79990386 4.65065417,7.60630837 4.625,7.4 C4.63225875,7.20073621 4.6791732,7.00491937 4.763,6.824 C4.03308219,6.51486114 3.41390431,5.99190684 2.987,5.324 C3.02,5.207 3.056,5.096 3.095,4.988 C3.66921332,3.69873216 4.922099,2.84412246 6.332,2.78 Z M8.924,3.665 C10.1078744,4.66798163 10.5392522,6.30362233 10.004,7.76 C9.932,6.86 9.575,6.968 9.575,6.968 C9.1069055,7.06281608 8.62884825,6.85896508 8.37321191,6.45553899 C8.11757558,6.05211289 8.1373807,5.53278475 8.423,5.15 C8.6,4.928 8.942,4.775 9.059,4.52 C9.07619141,4.48229412 9.08538461,4.44143548 9.086,4.4 C9.086,4.229 8.816,4.154 8.729,4.016 C8.642,3.878 8.765,3.749 8.924,3.665 Z M5.789,4.767 L5.69955913,4.81576888 C4.7788625,5.3028125 4.4888,5.3621 4.448,5.714 C4.41618184,5.93531534 4.53667634,6.15048408 4.742,6.239 L5.697,4.897 L5.755,4.815 L5.768,4.797 L5.789,4.767 Z M5.804,4.747 L5.789,4.767 L5.79,4.767 L5.804,4.747 Z" id="8" fill="#B3C8D3" fill-rule="nonzero"></path>
    </g>
</svg>