<?xml version="1.0" encoding="UTF-8"?>
<svg width="44px" height="44px" viewBox="0 0 44 44" version="1.1" xmlns="http://www.w3.org/2000/svg" xmlns:xlink="http://www.w3.org/1999/xlink">
    <!-- Generator: Sketch 58 (84663) - https://sketch.com -->
    <title>icon/icon-transfer@2x</title>
    <desc>Created with Sketch.</desc>
    <g id="icon/icon-transfer" stroke="none" stroke-width="1" fill="none" fill-rule="evenodd">
        <path d="M23.8571429,15.1099298 C25.2247051,15.1099298 26.3333333,16.2128121 26.3333333,17.5732865 L26.3333333,34.7665538 C26.3333333,35.7051548 25.3202366,36.2988405 24.4950281,35.8438209 L21.4450692,34.1620748 L18.8296185,35.5462152 C18.1025558,35.9309891 17.2307775,35.9309891 16.5037149,35.5462152 L13.8882641,34.1620748 L10.8383053,35.8438209 C10.0130967,36.2988405 9,35.7051548 9,34.7665538 L9,17.5732865 C9,16.2128121 10.1086282,15.1099298 11.4761905,15.1099298 L23.8571429,15.1099298 Z M33.1616948,9.15617915 C33.9869033,8.70115947 35,9.29484519 35,10.2334462 L35,10.2334462 L35,27.4267135 C35,28.7871879 33.8913718,29.8900702 32.5238095,29.8900702 L32.5238095,29.8900702 L27.5714286,29.8900702 L27.5714286,23.7316784 L28.8081636,23.7316784 C29.4919447,23.7316784 30.0462588,23.1802372 30.0462588,22.5 C30.0462588,21.8197628 29.4919447,21.2683216 28.8081636,21.2683216 L28.8081636,21.2683216 L27.5714286,21.2683216 L27.5714286,18.8049649 L28.8081636,18.8049649 C29.4919447,18.8049649 30.0462588,18.2535237 30.0462588,17.5732865 C30.0462588,16.8930494 29.4919447,16.3416081 28.8081636,16.3416081 L28.8081636,16.3416081 L27.3607062,16.3416081 C26.8513156,14.9055426 25.4750301,13.8764837 23.8571429,13.8764837 L23.8571429,13.8764837 L17.6666667,13.8764837 L17.6666667,10.2334462 C17.6666667,9.29484519 18.6797633,8.70115947 19.5049719,9.15617915 L19.5049719,9.15617915 L22.5549308,10.8379252 L25.1703815,9.45378479 C25.8974442,9.06901093 26.7692225,9.06901093 27.4962851,9.45378479 L27.4962851,9.45378479 L30.1117359,10.8379252 Z M20.1414969,26.1950351 L15.1904762,26.1950351 C14.5066951,26.1950351 13.952381,26.7464763 13.952381,27.4267135 C13.952381,28.1069506 14.5066951,28.6583919 15.1904762,28.6583919 L20.1414969,28.6583919 C20.8252781,28.6583919 21.3795922,28.1069506 21.3795922,27.4267135 C21.3795922,26.7464763 20.8252781,26.1950351 20.1414969,26.1950351 Z M20.1414969,21.2683216 L15.1904762,21.2683216 C14.5066951,21.2683216 13.952381,21.8197628 13.952381,22.5 C13.952381,23.1802372 14.5066951,23.7316784 15.1904762,23.7316784 L20.1414969,23.7316784 C20.8252781,23.7316784 21.3795922,23.1802372 21.3795922,22.5 C21.3795922,21.8197628 20.8252781,21.2683216 20.1414969,21.2683216 Z" id="Combined-Shape" fill="#FFFFFF" fill-rule="nonzero"></path>
    </g>
</svg>